<svg width="17" height="18" viewBox="0 0 17 18" fill="none" xmlns="http://www.w3.org/2000/svg">
<ellipse cx="8.5" cy="8.8908" rx="8.5" ry="8.8908" fill="#296EEE"/>
<path d="M5.25977 4.60767H8.86914C9.49414 4.60767 10.043 4.73267 10.5156 4.98267C10.9922 5.22876 11.3594 5.57642 11.6172 6.02563C11.8789 6.47485 12.0098 6.99438 12.0098 7.58423C12.0098 8.18188 11.877 8.70337 11.6113 9.14868C11.3457 9.59399 10.9707 9.93774 10.4863 10.1799C10.002 10.4182 9.43945 10.5374 8.79883 10.5374H7.48633V13.092H5.25977V4.60767ZM8.35352 8.80298C8.77148 8.80298 9.0957 8.69556 9.32617 8.48071C9.56055 8.26196 9.67773 7.96313 9.67773 7.58423C9.67773 7.21313 9.56055 6.92212 9.32617 6.71118C9.0957 6.49634 8.77148 6.38892 8.35352 6.38892H7.48633V8.80298H8.35352Z" fill="white"/>
</svg>
